<svg width="55" height="31" viewBox="0 0 55 31" fill="none" xmlns="http://www.w3.org/2000/svg">
<path d="M30.3665 15.1833C30.3665 18.1862 29.476 21.1218 27.8077 23.6186C26.1393 26.1155 23.768 28.0616 20.9936 29.2108C18.2193 30.36 15.1664 30.6606 12.2212 30.0748C9.27589 29.4889 6.57049 28.0429 4.44707 25.9195C2.32366 23.796 0.877592 21.0906 0.291742 18.1454C-0.294107 15.2001 0.00657186 12.1473 1.15576 9.37288C2.30494 6.59851 4.25102 4.2272 6.74789 2.55885C9.24477 0.890487 12.1803 3.77889e-06 15.1833 3.8147e-06V5.90775C13.3487 5.90775 11.5554 6.45175 10.0301 7.47096C8.50471 8.49016 7.31585 9.9388 6.6138 11.6337C5.91176 13.3286 5.72808 15.1936 6.08597 16.9928C6.44387 18.7921 7.32728 20.4448 8.62448 21.742C9.92169 23.0393 11.5744 23.9227 13.3737 24.2806C15.173 24.6385 17.038 24.4548 18.7329 23.7527C20.4277 23.0507 21.8764 21.8618 22.8956 20.3365C23.9148 18.8111 24.4588 17.0178 24.4588 15.1833H30.3665Z" fill="white"/>
<path d="M24.6335 15.1833C24.6335 12.1803 25.524 9.24478 27.1923 6.7479C28.8607 4.25102 31.232 2.30495 34.0064 1.15576C36.7807 0.00657876 39.8336 -0.294101 42.7788 0.291749C45.7241 0.877599 48.4295 2.32367 50.5529 4.44708C52.6763 6.5705 54.1224 9.2759 54.7083 12.2212C55.2941 15.1664 54.9934 18.2193 53.8442 20.9937C52.6951 23.768 50.749 26.1393 48.2521 27.8077C45.7552 29.4761 42.8197 30.3665 39.8167 30.3665L39.8167 24.4887C41.6572 24.4887 43.4563 23.943 44.9866 22.9205C46.5168 21.898 47.7095 20.4447 48.4139 18.7443C49.1182 17.044 49.3024 15.1729 48.9434 13.3679C48.5843 11.5628 47.6981 9.90471 46.3967 8.60332C45.0953 7.30193 43.4372 6.41567 41.6321 6.05662C39.8271 5.69756 37.956 5.88184 36.2557 6.58615C34.5553 7.29046 33.102 8.48316 32.0795 10.0134C31.057 11.5437 30.5113 13.3428 30.5113 15.1833L24.6335 15.1833Z" fill="white"/>
</svg>
